<mxfile host="drawio-plugin" modified="2022-11-18T02:45:31.191Z" agent="5.0 (Windows NT 6.2; Win64; x64) AppleWebKit/537.36 (KHTML, like Gecko) Chrome/97.0.4692.45 Safari/537.36" etag="O1NI2-VkyC-Xw1h3kq5P" version="15.5.4" type="embed"><diagram id="23iRSUPoRavnBvh4doch" name="Page-1"><mxGraphModel dx="553" dy="462" grid="1" gridSize="10" guides="1" tooltips="1" connect="1" arrows="1" fold="1" page="1" pageScale="1" pageWidth="827" pageHeight="1169" math="0" shadow="0"><root><mxCell id="0"/><mxCell id="1" parent="0"/><mxCell id="2" value="Display" style="rounded=0;whiteSpace=wrap;html=1;" vertex="1" parent="1"><mxGeometry x="230" y="210" width="130" height="230" as="geometry"/></mxCell><mxCell id="3" value="" style="endArrow=classic;html=1;rounded=0;" edge="1" parent="1"><mxGeometry width="50" height="50" relative="1" as="geometry"><mxPoint x="360" y="200" as="sourcePoint"/><mxPoint x="230" y="200" as="targetPoint"/></mxGeometry></mxCell><mxCell id="7" value="x" style="edgeLabel;html=1;align=center;verticalAlign=middle;resizable=0;points=[];" vertex="1" connectable="0" parent="3"><mxGeometry x="0.1846" y="-2" relative="1" as="geometry"><mxPoint y="-7" as="offset"/></mxGeometry></mxCell><mxCell id="4" value="" style="endArrow=classic;html=1;rounded=0;" edge="1" parent="1"><mxGeometry width="50" height="50" relative="1" as="geometry"><mxPoint x="370" y="210" as="sourcePoint"/><mxPoint x="370" y="440" as="targetPoint"/></mxGeometry></mxCell><mxCell id="6" value="y" style="edgeLabel;html=1;align=center;verticalAlign=middle;resizable=0;points=[];" vertex="1" connectable="0" parent="4"><mxGeometry x="0.136" y="4" relative="1" as="geometry"><mxPoint as="offset"/></mxGeometry></mxCell><mxCell id="5" value="0" style="text;html=1;align=center;verticalAlign=middle;resizable=0;points=[];autosize=1;strokeColor=none;fillColor=none;" vertex="1" parent="1"><mxGeometry x="360" y="190" width="20" height="20" as="geometry"/></mxCell></root></mxGraphModel></diagram></mxfile>